<mxfile host="65bd71144e">
    <diagram id="tr8WCDj-hul7nBdrf4UF" name="Страница 1">
        <mxGraphModel dx="616" dy="479" grid="1" gridSize="10" guides="1" tooltips="1" connect="0" arrows="1" fold="1" page="1" pageScale="1" pageWidth="827" pageHeight="1169" math="0" shadow="0">
            <root>
                <mxCell id="0"/>
                <mxCell id="1" parent="0"/>
                <mxCell id="2" style="edgeStyle=orthogonalEdgeStyle;rounded=0;orthogonalLoop=1;jettySize=auto;html=1;" parent="1" source="3" edge="1">
                    <mxGeometry relative="1" as="geometry">
                        <mxPoint x="375" y="150" as="targetPoint"/>
                    </mxGeometry>
                </mxCell>
                <mxCell id="3" value="Запуск" style="rounded=1;whiteSpace=wrap;html=1;arcSize=50;" parent="1" vertex="1">
                    <mxGeometry x="305" y="20" width="140" height="40" as="geometry"/>
                </mxCell>
                <mxCell id="5" value="#include &amp;lt;iostream&amp;gt;&lt;br&gt;using namespace std;" style="strokeWidth=2;html=1;shape=mxgraph.flowchart.annotation_2;align=left;labelPosition=right;pointerEvents=1;" parent="1" vertex="1">
                    <mxGeometry x="458.01" y="40" width="20" height="80" as="geometry"/>
                </mxCell>
                <mxCell id="6" value="" style="endArrow=none;dashed=1;html=1;entryX=0;entryY=0.5;entryDx=0;entryDy=0;entryPerimeter=0;" parent="1" target="5" edge="1">
                    <mxGeometry width="50" height="50" relative="1" as="geometry">
                        <mxPoint x="375" y="80" as="sourcePoint"/>
                        <mxPoint x="465" y="70" as="targetPoint"/>
                    </mxGeometry>
                </mxCell>
                <mxCell id="7" value="Конец" style="rounded=1;whiteSpace=wrap;html=1;arcSize=50;" parent="1" vertex="1">
                    <mxGeometry x="304.99" y="2010" width="140" height="40" as="geometry"/>
                </mxCell>
                <mxCell id="10" value="return 0;&lt;br&gt;}" style="strokeWidth=2;html=1;shape=mxgraph.flowchart.annotation_2;align=left;labelPosition=right;pointerEvents=1;" parent="1" vertex="1">
                    <mxGeometry x="480" y="1960" width="20" height="60" as="geometry"/>
                </mxCell>
                <mxCell id="11" value="" style="endArrow=none;dashed=1;html=1;entryX=0;entryY=0.5;entryDx=0;entryDy=0;entryPerimeter=0;" parent="1" edge="1">
                    <mxGeometry width="50" height="50" relative="1" as="geometry">
                        <mxPoint x="380" y="1990" as="sourcePoint"/>
                        <mxPoint x="480" y="1990" as="targetPoint"/>
                    </mxGeometry>
                </mxCell>
                <mxCell id="383" style="edgeStyle=orthogonalEdgeStyle;html=1;rounded=0;" parent="1" source="354" target="382" edge="1">
                    <mxGeometry relative="1" as="geometry"/>
                </mxCell>
                <mxCell id="354" value="int main() {" style="ellipse;whiteSpace=wrap;html=1;" parent="1" vertex="1">
                    <mxGeometry x="315" y="150" width="120" height="60" as="geometry"/>
                </mxCell>
                <mxCell id="386" style="edgeStyle=orthogonalEdgeStyle;rounded=0;html=1;" parent="1" source="382" target="384" edge="1">
                    <mxGeometry relative="1" as="geometry"/>
                </mxCell>
                <mxCell id="382" value="setlocale(LC_ALL, &quot;Russian&quot;);" style="rounded=0;whiteSpace=wrap;html=1;" parent="1" vertex="1">
                    <mxGeometry x="300" y="250" width="150" height="40" as="geometry"/>
                </mxCell>
                <mxCell id="387" style="edgeStyle=orthogonalEdgeStyle;rounded=0;html=1;" parent="1" source="384" target="385" edge="1">
                    <mxGeometry relative="1" as="geometry"/>
                </mxCell>
                <mxCell id="384" value="string st;" style="rounded=0;whiteSpace=wrap;html=1;" parent="1" vertex="1">
                    <mxGeometry x="300" y="310" width="150" height="40" as="geometry"/>
                </mxCell>
                <mxCell id="391" style="edgeStyle=orthogonalEdgeStyle;rounded=0;html=1;" parent="1" source="385" target="390" edge="1">
                    <mxGeometry relative="1" as="geometry"/>
                </mxCell>
                <mxCell id="385" value="string sbst;" style="rounded=0;whiteSpace=wrap;html=1;" parent="1" vertex="1">
                    <mxGeometry x="300" y="370" width="150" height="40" as="geometry"/>
                </mxCell>
                <mxCell id="393" style="edgeStyle=orthogonalEdgeStyle;rounded=0;html=1;" parent="1" source="390" target="392" edge="1">
                    <mxGeometry relative="1" as="geometry"/>
                </mxCell>
                <mxCell id="390" value="cout &amp;lt;&amp;lt; &quot;Введите строку: &quot;;" style="shape=parallelogram;perimeter=parallelogramPerimeter;whiteSpace=wrap;html=1;fixedSize=1;" parent="1" vertex="1">
                    <mxGeometry x="188.38" y="440" width="373.25" height="40" as="geometry"/>
                </mxCell>
                <mxCell id="394" style="edgeStyle=orthogonalEdgeStyle;rounded=0;html=1;" parent="1" source="392" edge="1">
                    <mxGeometry relative="1" as="geometry">
                        <mxPoint x="375" y="560" as="targetPoint"/>
                    </mxGeometry>
                </mxCell>
                <mxCell id="392" value="cin &amp;gt;&amp;gt; st;" style="shape=parallelogram;perimeter=parallelogramPerimeter;whiteSpace=wrap;html=1;fixedSize=1;" parent="1" vertex="1">
                    <mxGeometry x="188.38" y="500" width="373.25" height="40" as="geometry"/>
                </mxCell>
                <mxCell id="527" style="edgeStyle=orthogonalEdgeStyle;html=1;" parent="1" source="420" edge="1">
                    <mxGeometry relative="1" as="geometry">
                        <mxPoint x="1800.1399999999999" y="219.91" as="targetPoint"/>
                    </mxGeometry>
                </mxCell>
                <mxCell id="420" value="&lt;div&gt;int Search(string str, string sbstr)&lt;/div&gt;" style="ellipse;whiteSpace=wrap;html=1;" parent="1" vertex="1">
                    <mxGeometry x="1740.1399999999999" y="129.91" width="120" height="60" as="geometry"/>
                </mxCell>
                <mxCell id="436" value="return -1;" style="ellipse;whiteSpace=wrap;html=1;" parent="1" vertex="1">
                    <mxGeometry x="1330" y="419.91" width="120" height="60" as="geometry"/>
                </mxCell>
                <mxCell id="450" style="edgeStyle=orthogonalEdgeStyle;rounded=0;html=1;entryX=-0.005;entryY=0.525;entryDx=0;entryDy=0;entryPerimeter=0;" parent="1" edge="1">
                    <mxGeometry relative="1" as="geometry">
                        <Array as="points">
                            <mxPoint x="1995" y="600"/>
                            <mxPoint x="1840" y="600"/>
                            <mxPoint x="1840" y="387"/>
                        </Array>
                        <mxPoint x="1899.0500000000002" y="387" as="targetPoint"/>
                    </mxGeometry>
                </mxCell>
                <mxCell id="488" style="edgeStyle=orthogonalEdgeStyle;rounded=0;html=1;" parent="1" source="486" edge="1">
                    <mxGeometry relative="1" as="geometry">
                        <mxPoint x="375" y="620" as="targetPoint"/>
                    </mxGeometry>
                </mxCell>
                <mxCell id="486" value="int n = st.size();" style="rounded=0;whiteSpace=wrap;html=1;" parent="1" vertex="1">
                    <mxGeometry x="300" y="560" width="150" height="40" as="geometry"/>
                </mxCell>
                <mxCell id="576" style="edgeStyle=orthogonalEdgeStyle;rounded=0;html=1;" parent="1" source="574" target="7" edge="1">
                    <mxGeometry relative="1" as="geometry"/>
                </mxCell>
                <mxCell id="574" value="delete[]st2;" style="rounded=0;whiteSpace=wrap;html=1;" parent="1" vertex="1">
                    <mxGeometry x="300" y="1920" width="150" height="40" as="geometry"/>
                </mxCell>
                <mxCell id="579" style="edgeStyle=orthogonalEdgeStyle;html=1;rounded=0;" edge="1" parent="1" source="577" target="578">
                    <mxGeometry relative="1" as="geometry"/>
                </mxCell>
                <mxCell id="577" value="int st = str.size();" style="rounded=0;whiteSpace=wrap;html=1;" vertex="1" parent="1">
                    <mxGeometry x="1735.14" y="219.91" width="130" height="50" as="geometry"/>
                </mxCell>
                <mxCell id="581" style="edgeStyle=orthogonalEdgeStyle;rounded=0;html=1;" edge="1" parent="1" source="578" target="580">
                    <mxGeometry relative="1" as="geometry"/>
                </mxCell>
                <mxCell id="578" value="int sbst = sbstr.size();" style="rounded=0;whiteSpace=wrap;html=1;" vertex="1" parent="1">
                    <mxGeometry x="1735.14" y="289.91" width="130" height="50" as="geometry"/>
                </mxCell>
                <mxCell id="583" style="edgeStyle=orthogonalEdgeStyle;rounded=0;html=1;" edge="1" parent="1" source="580" target="582">
                    <mxGeometry relative="1" as="geometry"/>
                </mxCell>
                <mxCell id="580" value="int res = -1;" style="rounded=0;whiteSpace=wrap;html=1;" vertex="1" parent="1">
                    <mxGeometry x="1735.14" y="359.91" width="130" height="50" as="geometry"/>
                </mxCell>
                <mxCell id="585" value="1" style="edgeStyle=orthogonalEdgeStyle;rounded=0;html=1;" edge="1" parent="1" source="582" target="584">
                    <mxGeometry relative="1" as="geometry"/>
                </mxCell>
                <mxCell id="628" style="edgeStyle=orthogonalEdgeStyle;rounded=0;html=1;" edge="1" parent="1" source="582">
                    <mxGeometry relative="1" as="geometry">
                        <mxPoint x="1660" y="1912.1052631578948" as="targetPoint"/>
                        <Array as="points">
                            <mxPoint x="2190" y="470"/>
                            <mxPoint x="2190" y="1912"/>
                        </Array>
                    </mxGeometry>
                </mxCell>
                <mxCell id="582" value="if (st != 0 &amp;amp;&amp;amp; sbst != 0)" style="rhombus;whiteSpace=wrap;html=1;" vertex="1" parent="1">
                    <mxGeometry x="1705.14" y="444.91" width="190" height="50" as="geometry"/>
                </mxCell>
                <mxCell id="587" style="edgeStyle=orthogonalEdgeStyle;rounded=0;html=1;" edge="1" parent="1" source="584" target="586">
                    <mxGeometry relative="1" as="geometry"/>
                </mxCell>
                <mxCell id="584" value="int pos;" style="rounded=0;whiteSpace=wrap;html=1;" vertex="1" parent="1">
                    <mxGeometry x="1540" y="509.91" width="130" height="50" as="geometry"/>
                </mxCell>
                <mxCell id="589" style="edgeStyle=orthogonalEdgeStyle;rounded=0;html=1;" edge="1" parent="1" source="586" target="588">
                    <mxGeometry relative="1" as="geometry"/>
                </mxCell>
                <mxCell id="586" value="int b[256];" style="rounded=0;whiteSpace=wrap;html=1;" vertex="1" parent="1">
                    <mxGeometry x="1540" y="579.91" width="130" height="50" as="geometry"/>
                </mxCell>
                <mxCell id="591" value="1" style="edgeStyle=orthogonalEdgeStyle;rounded=0;html=1;" edge="1" parent="1" source="588" target="590">
                    <mxGeometry relative="1" as="geometry"/>
                </mxCell>
                <mxCell id="594" style="edgeStyle=orthogonalEdgeStyle;rounded=0;html=1;" edge="1" parent="1" source="588" target="593">
                    <mxGeometry relative="1" as="geometry">
                        <Array as="points">
                            <mxPoint x="1730" y="674.91"/>
                            <mxPoint x="1730" y="829.91"/>
                            <mxPoint x="1605" y="829.91"/>
                        </Array>
                    </mxGeometry>
                </mxCell>
                <mxCell id="588" value="for (int i = 0; i &amp;lt; 256; i++)" style="shape=hexagon;perimeter=hexagonPerimeter2;whiteSpace=wrap;html=1;fixedSize=1;" vertex="1" parent="1">
                    <mxGeometry x="1515" y="649.91" width="180" height="50" as="geometry"/>
                </mxCell>
                <mxCell id="592" style="edgeStyle=orthogonalEdgeStyle;rounded=0;html=1;entryX=0;entryY=0.48;entryDx=0;entryDy=0;entryPerimeter=0;" edge="1" parent="1" source="590" target="588">
                    <mxGeometry relative="1" as="geometry">
                        <Array as="points">
                            <mxPoint x="1605" y="809.91"/>
                            <mxPoint x="1490" y="809.91"/>
                            <mxPoint x="1490" y="673.91"/>
                        </Array>
                    </mxGeometry>
                </mxCell>
                <mxCell id="590" value="b[i] = sbst;" style="rounded=0;whiteSpace=wrap;html=1;" vertex="1" parent="1">
                    <mxGeometry x="1540" y="729.91" width="130" height="50" as="geometry"/>
                </mxCell>
                <mxCell id="596" style="edgeStyle=orthogonalEdgeStyle;rounded=0;html=1;" edge="1" parent="1" source="593" target="595">
                    <mxGeometry relative="1" as="geometry"/>
                </mxCell>
                <mxCell id="603" style="edgeStyle=orthogonalEdgeStyle;rounded=0;html=1;" edge="1" parent="1" source="593" target="602">
                    <mxGeometry relative="1" as="geometry">
                        <Array as="points">
                            <mxPoint x="1850" y="875"/>
                            <mxPoint x="1850" y="1160"/>
                            <mxPoint x="1605" y="1160"/>
                        </Array>
                    </mxGeometry>
                </mxCell>
                <mxCell id="593" value="for (int i = sbst - 2; i &amp;gt;= 0; i--)" style="shape=hexagon;perimeter=hexagonPerimeter2;whiteSpace=wrap;html=1;fixedSize=1;" vertex="1" parent="1">
                    <mxGeometry x="1515" y="849.91" width="180" height="50" as="geometry"/>
                </mxCell>
                <mxCell id="598" value="1" style="edgeStyle=orthogonalEdgeStyle;rounded=0;html=1;" edge="1" parent="1" source="595" target="597">
                    <mxGeometry relative="1" as="geometry"/>
                </mxCell>
                <mxCell id="600" style="edgeStyle=orthogonalEdgeStyle;rounded=0;html=1;" edge="1" parent="1" source="595">
                    <mxGeometry relative="1" as="geometry">
                        <mxPoint x="1610" y="1109.91" as="targetPoint"/>
                        <Array as="points">
                            <mxPoint x="1820" y="969.91"/>
                            <mxPoint x="1820" y="1109.91"/>
                        </Array>
                    </mxGeometry>
                </mxCell>
                <mxCell id="595" value="if (b[int((unsigned char)sbstr[i])] == sbst)" style="rhombus;whiteSpace=wrap;html=1;" vertex="1" parent="1">
                    <mxGeometry x="1465" y="929.91" width="280" height="80" as="geometry"/>
                </mxCell>
                <mxCell id="599" style="edgeStyle=orthogonalEdgeStyle;rounded=0;html=1;" edge="1" parent="1" source="597">
                    <mxGeometry relative="1" as="geometry">
                        <mxPoint x="1610" y="1109.91" as="targetPoint"/>
                        <Array as="points">
                            <mxPoint x="1385" y="1109.91"/>
                        </Array>
                    </mxGeometry>
                </mxCell>
                <mxCell id="597" value="b[int((unsigned char)sbstr[i])] = sbst - i - 1;" style="rounded=0;whiteSpace=wrap;html=1;" vertex="1" parent="1">
                    <mxGeometry x="1320" y="1029.91" width="130" height="50" as="geometry"/>
                </mxCell>
                <mxCell id="601" value="" style="endArrow=classic;html=1;rounded=0;entryX=-0.004;entryY=0.51;entryDx=0;entryDy=0;entryPerimeter=0;" edge="1" parent="1" target="593">
                    <mxGeometry width="50" height="50" relative="1" as="geometry">
                        <mxPoint x="1610" y="1110" as="sourcePoint"/>
                        <mxPoint x="1490" y="1120" as="targetPoint"/>
                        <Array as="points">
                            <mxPoint x="1610" y="1140"/>
                            <mxPoint x="1280" y="1140"/>
                            <mxPoint x="1280" y="875"/>
                        </Array>
                    </mxGeometry>
                </mxCell>
                <mxCell id="605" style="edgeStyle=orthogonalEdgeStyle;rounded=0;html=1;" edge="1" parent="1" source="602" target="604">
                    <mxGeometry relative="1" as="geometry"/>
                </mxCell>
                <mxCell id="602" value="pos = sbst - 1;" style="rounded=0;whiteSpace=wrap;html=1;" vertex="1" parent="1">
                    <mxGeometry x="1540" y="1200" width="130" height="50" as="geometry"/>
                </mxCell>
                <mxCell id="607" style="edgeStyle=orthogonalEdgeStyle;rounded=0;html=1;" edge="1" parent="1" source="604" target="606">
                    <mxGeometry relative="1" as="geometry"/>
                </mxCell>
                <mxCell id="627" style="edgeStyle=orthogonalEdgeStyle;rounded=0;html=1;" edge="1" parent="1" source="604" target="629">
                    <mxGeometry relative="1" as="geometry">
                        <mxPoint x="1660" y="1910" as="targetPoint"/>
                        <Array as="points">
                            <mxPoint x="2100" y="1315"/>
                            <mxPoint x="2100" y="1870"/>
                            <mxPoint x="1660" y="1870"/>
                        </Array>
                    </mxGeometry>
                </mxCell>
                <mxCell id="604" value="while (pos &amp;lt; st)" style="rhombus;whiteSpace=wrap;html=1;" vertex="1" parent="1">
                    <mxGeometry x="1533" y="1280" width="144" height="70" as="geometry"/>
                </mxCell>
                <mxCell id="609" value="1" style="edgeStyle=orthogonalEdgeStyle;rounded=0;html=1;" edge="1" parent="1" source="606" target="608">
                    <mxGeometry relative="1" as="geometry">
                        <Array as="points">
                            <mxPoint x="1468" y="1425"/>
                        </Array>
                    </mxGeometry>
                </mxCell>
                <mxCell id="611" value="0" style="edgeStyle=orthogonalEdgeStyle;rounded=0;html=1;" edge="1" parent="1" source="606" target="610">
                    <mxGeometry relative="1" as="geometry">
                        <Array as="points">
                            <mxPoint x="1795" y="1425"/>
                        </Array>
                    </mxGeometry>
                </mxCell>
                <mxCell id="606" value="if (sbstr[sbst - 1] != str[pos])" style="rhombus;whiteSpace=wrap;html=1;" vertex="1" parent="1">
                    <mxGeometry x="1533" y="1390" width="144" height="70" as="geometry"/>
                </mxCell>
                <mxCell id="624" style="edgeStyle=orthogonalEdgeStyle;rounded=0;html=1;" edge="1" parent="1" source="608">
                    <mxGeometry relative="1" as="geometry">
                        <mxPoint x="1640" y="1810" as="targetPoint"/>
                        <Array as="points">
                            <mxPoint x="1468" y="1810"/>
                        </Array>
                    </mxGeometry>
                </mxCell>
                <mxCell id="608" value="pos = sbst - 1;" style="rounded=0;whiteSpace=wrap;html=1;" vertex="1" parent="1">
                    <mxGeometry x="1403" y="1470" width="130" height="50" as="geometry"/>
                </mxCell>
                <mxCell id="613" style="edgeStyle=orthogonalEdgeStyle;rounded=0;html=1;" edge="1" parent="1" source="610" target="612">
                    <mxGeometry relative="1" as="geometry"/>
                </mxCell>
                <mxCell id="610" value="for (int i = sbst - 1; i &amp;gt;= 0; i--)" style="shape=hexagon;perimeter=hexagonPerimeter2;whiteSpace=wrap;html=1;fixedSize=1;" vertex="1" parent="1">
                    <mxGeometry x="1705.14" y="1460" width="180" height="50" as="geometry"/>
                </mxCell>
                <mxCell id="615" value="1" style="edgeStyle=orthogonalEdgeStyle;rounded=0;html=1;" edge="1" parent="1" source="612" target="614">
                    <mxGeometry relative="1" as="geometry">
                        <Array as="points">
                            <mxPoint x="1770" y="1645"/>
                        </Array>
                    </mxGeometry>
                </mxCell>
                <mxCell id="619" value="0" style="edgeStyle=orthogonalEdgeStyle;rounded=0;html=1;" edge="1" parent="1" source="612" target="618">
                    <mxGeometry relative="1" as="geometry">
                        <Array as="points">
                            <mxPoint x="1997" y="1580"/>
                        </Array>
                    </mxGeometry>
                </mxCell>
                <mxCell id="612" value="if (sbstr[i] != str[pos - sbst + i + 1])" style="rhombus;whiteSpace=wrap;html=1;" vertex="1" parent="1">
                    <mxGeometry x="1681.57" y="1552.5" width="227.14" height="55" as="geometry"/>
                </mxCell>
                <mxCell id="617" style="edgeStyle=orthogonalEdgeStyle;rounded=0;html=1;" edge="1" parent="1" source="614" target="616">
                    <mxGeometry relative="1" as="geometry"/>
                </mxCell>
                <mxCell id="614" value="pos += b[int((unsigned char)str[pos - sbst + i + 1])];" style="rounded=0;whiteSpace=wrap;html=1;" vertex="1" parent="1">
                    <mxGeometry x="1547" y="1620" width="130" height="50" as="geometry"/>
                </mxCell>
                <mxCell id="622" style="edgeStyle=orthogonalEdgeStyle;rounded=0;html=1;" edge="1" parent="1" source="616">
                    <mxGeometry relative="1" as="geometry">
                        <mxPoint x="1800" y="1770" as="targetPoint"/>
                        <Array as="points">
                            <mxPoint x="1612" y="1770"/>
                        </Array>
                    </mxGeometry>
                </mxCell>
                <mxCell id="616" value="break;" style="ellipse;whiteSpace=wrap;html=1;" vertex="1" parent="1">
                    <mxGeometry x="1567" y="1700" width="90" height="40" as="geometry"/>
                </mxCell>
                <mxCell id="621" value="1" style="edgeStyle=orthogonalEdgeStyle;rounded=0;html=1;" edge="1" parent="1" source="618" target="620">
                    <mxGeometry relative="1" as="geometry"/>
                </mxCell>
                <mxCell id="618" value="else if (i == 0)" style="rhombus;whiteSpace=wrap;html=1;" vertex="1" parent="1">
                    <mxGeometry x="1908.71" y="1615" width="177.14" height="55" as="geometry"/>
                </mxCell>
                <mxCell id="623" style="edgeStyle=orthogonalEdgeStyle;rounded=0;html=1;" edge="1" parent="1" source="620">
                    <mxGeometry relative="1" as="geometry">
                        <mxPoint x="1800" y="1770" as="targetPoint"/>
                        <Array as="points">
                            <mxPoint x="1997" y="1770"/>
                        </Array>
                    </mxGeometry>
                </mxCell>
                <mxCell id="620" value="return pos - sbst + 1;" style="ellipse;whiteSpace=wrap;html=1;" vertex="1" parent="1">
                    <mxGeometry x="1929.8500000000001" y="1710" width="134.86" height="40" as="geometry"/>
                </mxCell>
                <mxCell id="625" value="" style="endArrow=classic;html=1;rounded=0;" edge="1" parent="1">
                    <mxGeometry width="50" height="50" relative="1" as="geometry">
                        <mxPoint x="1800" y="1770" as="sourcePoint"/>
                        <mxPoint x="1640" y="1810" as="targetPoint"/>
                        <Array as="points">
                            <mxPoint x="1800" y="1810"/>
                        </Array>
                    </mxGeometry>
                </mxCell>
                <mxCell id="626" value="" style="endArrow=classic;html=1;rounded=0;entryX=0.006;entryY=0.496;entryDx=0;entryDy=0;entryPerimeter=0;" edge="1" parent="1" target="604">
                    <mxGeometry width="50" height="50" relative="1" as="geometry">
                        <mxPoint x="1640" y="1810" as="sourcePoint"/>
                        <mxPoint x="1710" y="1580" as="targetPoint"/>
                        <Array as="points">
                            <mxPoint x="1640" y="1840"/>
                            <mxPoint x="1360" y="1840"/>
                            <mxPoint x="1360" y="1315"/>
                        </Array>
                    </mxGeometry>
                </mxCell>
                <mxCell id="629" value="return res;" style="ellipse;whiteSpace=wrap;html=1;" vertex="1" parent="1">
                    <mxGeometry x="1600" y="1930" width="124.86" height="40" as="geometry"/>
                </mxCell>
                <mxCell id="632" style="edgeStyle=orthogonalEdgeStyle;rounded=0;html=1;" edge="1" parent="1" source="630" target="631">
                    <mxGeometry relative="1" as="geometry"/>
                </mxCell>
                <mxCell id="630" value="string* st2 = new string[n];" style="rounded=0;whiteSpace=wrap;html=1;" vertex="1" parent="1">
                    <mxGeometry x="300" y="620" width="150" height="40" as="geometry"/>
                </mxCell>
                <mxCell id="634" style="edgeStyle=orthogonalEdgeStyle;rounded=0;html=1;" edge="1" parent="1" source="631" target="633">
                    <mxGeometry relative="1" as="geometry"/>
                </mxCell>
                <mxCell id="631" value="cout &amp;lt;&amp;lt; &quot;Введите подстроку: &quot;;" style="shape=parallelogram;perimeter=parallelogramPerimeter;whiteSpace=wrap;html=1;fixedSize=1;" vertex="1" parent="1">
                    <mxGeometry x="188.38" y="689.91" width="373.25" height="40" as="geometry"/>
                </mxCell>
                <mxCell id="636" style="edgeStyle=orthogonalEdgeStyle;rounded=0;html=1;" edge="1" parent="1" source="633" target="635">
                    <mxGeometry relative="1" as="geometry"/>
                </mxCell>
                <mxCell id="633" value="cin &amp;gt;&amp;gt; sbst;" style="shape=parallelogram;perimeter=parallelogramPerimeter;whiteSpace=wrap;html=1;fixedSize=1;" vertex="1" parent="1">
                    <mxGeometry x="188.38" y="750" width="373.25" height="40" as="geometry"/>
                </mxCell>
                <mxCell id="638" style="edgeStyle=orthogonalEdgeStyle;rounded=0;html=1;" edge="1" parent="1" source="635" target="637">
                    <mxGeometry relative="1" as="geometry"/>
                </mxCell>
                <mxCell id="635" value="int ist = Search(st, sbst);" style="rounded=0;whiteSpace=wrap;html=1;" vertex="1" parent="1">
                    <mxGeometry x="300" y="820" width="150" height="40" as="geometry"/>
                </mxCell>
                <mxCell id="640" value="1" style="edgeStyle=orthogonalEdgeStyle;rounded=0;html=1;" edge="1" parent="1" source="637" target="639">
                    <mxGeometry relative="1" as="geometry">
                        <Array as="points">
                            <mxPoint x="223" y="930"/>
                        </Array>
                    </mxGeometry>
                </mxCell>
                <mxCell id="643" value="0" style="edgeStyle=orthogonalEdgeStyle;rounded=0;html=1;" edge="1" parent="1" source="637">
                    <mxGeometry x="-0.8477" relative="1" as="geometry">
                        <mxPoint x="370" y="1120" as="targetPoint"/>
                        <Array as="points">
                            <mxPoint x="530" y="930"/>
                            <mxPoint x="530" y="1120"/>
                        </Array>
                        <mxPoint as="offset"/>
                    </mxGeometry>
                </mxCell>
                <mxCell id="637" value="if (ist == -1)" style="rhombus;whiteSpace=wrap;html=1;" vertex="1" parent="1">
                    <mxGeometry x="335" y="890" width="80" height="80" as="geometry"/>
                </mxCell>
                <mxCell id="642" style="edgeStyle=orthogonalEdgeStyle;rounded=0;html=1;" edge="1" parent="1" source="639" target="641">
                    <mxGeometry relative="1" as="geometry"/>
                </mxCell>
                <mxCell id="639" value="cout &amp;lt;&amp;lt; &quot;Не найден&quot;;" style="shape=parallelogram;perimeter=parallelogramPerimeter;whiteSpace=wrap;html=1;fixedSize=1;" vertex="1" parent="1">
                    <mxGeometry x="111.75" y="980" width="223.25" height="40.09" as="geometry"/>
                </mxCell>
                <mxCell id="644" style="edgeStyle=orthogonalEdgeStyle;rounded=0;html=1;" edge="1" parent="1" source="641">
                    <mxGeometry relative="1" as="geometry">
                        <mxPoint x="370" y="1120" as="targetPoint"/>
                        <Array as="points">
                            <mxPoint x="223" y="1120"/>
                        </Array>
                    </mxGeometry>
                </mxCell>
                <mxCell id="641" value="return 0;" style="ellipse;whiteSpace=wrap;html=1;" vertex="1" parent="1">
                    <mxGeometry x="173.37" y="1040" width="100" height="50" as="geometry"/>
                </mxCell>
                <mxCell id="648" style="edgeStyle=orthogonalEdgeStyle;rounded=0;html=1;" edge="1" parent="1" source="645" target="647">
                    <mxGeometry relative="1" as="geometry"/>
                </mxCell>
                <mxCell id="651" style="edgeStyle=orthogonalEdgeStyle;rounded=0;html=1;" edge="1" parent="1" source="645" target="650">
                    <mxGeometry relative="1" as="geometry">
                        <Array as="points">
                            <mxPoint x="480" y="1194"/>
                            <mxPoint x="480" y="1340"/>
                            <mxPoint x="370" y="1340"/>
                        </Array>
                    </mxGeometry>
                </mxCell>
                <mxCell id="645" value="for (int i = 0; i &amp;lt; ist; i++)" style="shape=hexagon;perimeter=hexagonPerimeter2;whiteSpace=wrap;html=1;fixedSize=1;" vertex="1" parent="1">
                    <mxGeometry x="290" y="1169" width="160" height="50" as="geometry"/>
                </mxCell>
                <mxCell id="646" value="" style="endArrow=classic;html=1;rounded=0;" edge="1" parent="1" target="645">
                    <mxGeometry width="50" height="50" relative="1" as="geometry">
                        <mxPoint x="370" y="1120" as="sourcePoint"/>
                        <mxPoint x="370" y="1210" as="targetPoint"/>
                    </mxGeometry>
                </mxCell>
                <mxCell id="649" style="edgeStyle=orthogonalEdgeStyle;rounded=0;html=1;entryX=0.004;entryY=0.507;entryDx=0;entryDy=0;entryPerimeter=0;" edge="1" parent="1" source="647" target="645">
                    <mxGeometry relative="1" as="geometry">
                        <Array as="points">
                            <mxPoint x="370" y="1320"/>
                            <mxPoint x="260" y="1320"/>
                            <mxPoint x="260" y="1194"/>
                        </Array>
                    </mxGeometry>
                </mxCell>
                <mxCell id="647" value="*st2 += st[i];" style="rounded=0;whiteSpace=wrap;html=1;" vertex="1" parent="1">
                    <mxGeometry x="310" y="1250" width="120" height="50" as="geometry"/>
                </mxCell>
                <mxCell id="653" style="edgeStyle=orthogonalEdgeStyle;rounded=0;html=1;" edge="1" parent="1" source="650" target="652">
                    <mxGeometry relative="1" as="geometry"/>
                </mxCell>
                <mxCell id="650" value="int size = sbst.size();" style="rounded=0;whiteSpace=wrap;html=1;" vertex="1" parent="1">
                    <mxGeometry x="310" y="1360" width="120" height="50" as="geometry"/>
                </mxCell>
                <mxCell id="655" style="edgeStyle=orthogonalEdgeStyle;rounded=0;html=1;" edge="1" parent="1" source="652" target="654">
                    <mxGeometry relative="1" as="geometry"/>
                </mxCell>
                <mxCell id="652" value="int i = ist;" style="rounded=0;whiteSpace=wrap;html=1;" vertex="1" parent="1">
                    <mxGeometry x="310" y="1430" width="120" height="50" as="geometry"/>
                </mxCell>
                <mxCell id="657" style="edgeStyle=orthogonalEdgeStyle;rounded=0;html=1;" edge="1" parent="1" source="654" target="656">
                    <mxGeometry relative="1" as="geometry"/>
                </mxCell>
                <mxCell id="662" style="edgeStyle=orthogonalEdgeStyle;rounded=0;html=1;" edge="1" parent="1" source="654" target="661">
                    <mxGeometry relative="1" as="geometry">
                        <Array as="points">
                            <mxPoint x="480" y="1530"/>
                            <mxPoint x="480" y="1770"/>
                            <mxPoint x="370" y="1770"/>
                        </Array>
                    </mxGeometry>
                </mxCell>
                <mxCell id="654" value="while (st[i + size] != '\0')" style="rhombus;whiteSpace=wrap;html=1;" vertex="1" parent="1">
                    <mxGeometry x="290" y="1500" width="160" height="60" as="geometry"/>
                </mxCell>
                <mxCell id="659" style="edgeStyle=orthogonalEdgeStyle;rounded=0;html=1;" edge="1" parent="1" source="656" target="658">
                    <mxGeometry relative="1" as="geometry"/>
                </mxCell>
                <mxCell id="656" value="*st2 += st[i + size];" style="rounded=0;whiteSpace=wrap;html=1;" vertex="1" parent="1">
                    <mxGeometry x="310" y="1600" width="120" height="50" as="geometry"/>
                </mxCell>
                <mxCell id="660" style="edgeStyle=orthogonalEdgeStyle;rounded=0;html=1;entryX=-0.003;entryY=0.494;entryDx=0;entryDy=0;entryPerimeter=0;" edge="1" parent="1" source="658" target="654">
                    <mxGeometry relative="1" as="geometry">
                        <Array as="points">
                            <mxPoint x="370" y="1740"/>
                            <mxPoint x="250" y="1740"/>
                            <mxPoint x="250" y="1530"/>
                            <mxPoint x="289" y="1530"/>
                        </Array>
                    </mxGeometry>
                </mxCell>
                <mxCell id="658" value="i++;" style="rounded=0;whiteSpace=wrap;html=1;" vertex="1" parent="1">
                    <mxGeometry x="310" y="1670" width="120" height="50" as="geometry"/>
                </mxCell>
                <mxCell id="664" style="edgeStyle=orthogonalEdgeStyle;rounded=0;html=1;" edge="1" parent="1" source="661" target="663">
                    <mxGeometry relative="1" as="geometry"/>
                </mxCell>
                <mxCell id="661" value="cout &amp;lt;&amp;lt; &quot;Итоговая строка: &quot;;" style="shape=parallelogram;perimeter=parallelogramPerimeter;whiteSpace=wrap;html=1;fixedSize=1;" vertex="1" parent="1">
                    <mxGeometry x="258.38" y="1800" width="223.25" height="40.09" as="geometry"/>
                </mxCell>
                <mxCell id="665" style="edgeStyle=orthogonalEdgeStyle;rounded=0;html=1;" edge="1" parent="1" source="663" target="574">
                    <mxGeometry relative="1" as="geometry"/>
                </mxCell>
                <mxCell id="663" value="cout &amp;lt;&amp;lt; *st2;" style="shape=parallelogram;perimeter=parallelogramPerimeter;whiteSpace=wrap;html=1;fixedSize=1;" vertex="1" parent="1">
                    <mxGeometry x="258.38" y="1860" width="223.25" height="40.09" as="geometry"/>
                </mxCell>
            </root>
        </mxGraphModel>
    </diagram>
</mxfile>